Coordinates
version=1
nRows=10
nColumns=63
inDegrees=yes

Units are S.I. units (second, meters, Newtons, ...)
If the header above contains a line with 'inDegrees', this indicates whether rotational values are in degrees (yes) or radians (no).

endheader
time	pelvis_tilt	pelvis_list	pelvis_rotation	pelvis_tx	pelvis_ty	pelvis_tz	hip_flexion_r	hip_adduction_r	hip_rotation_r	knee_angle_r	knee_angle_r_beta	ankle_angle_r	subtalar_angle_r	mtp_angle_r	hip_flexion_l	hip_adduction_l	hip_rotation_l	knee_angle_l	knee_angle_l_beta	ankle_angle_l	subtalar_angle_l	mtp_angle_l	L5_S1_Flex_Ext	L5_S1_Lat_Bending	L5_S1_axial_rotation	L4_L5_Flex_Ext	L4_L5_Lat_Bending	L4_L5_axial_rotation	L3_L4_Flex_Ext	L3_L4_Lat_Bending	L3_L4_axial_rotation	L2_L3_Flex_Ext	L2_L3_Lat_Bending	L2_L3_axial_rotation	L1_L2_Flex_Ext	L1_L2_Lat_Bending	L1_L2_axial_rotation	L1_T12_Flex_Ext	L1_T12_Lat_Bending	L1_T12_axial_rotation	Abs_r3	Abs_r2	Abs_r1	Abs_t1	Abs_t2	neck_flexion	neck_bending	neck_rotation	arm_flex_r	arm_add_r	arm_rot_r	elbow_flex_r	pro_sup_r	wrist_flex_r	wrist_dev_r	arm_flex_l	arm_add_l	arm_rot_l	elbow_flex_l	pro_sup_l	wrist_flex_l	wrist_dev_l
      3.76666667	     -0.98219696	     -2.17631616	     95.19893900	      0.23882162	      0.72869674	      0.68259323	     -0.25527098	     -1.07444266	      0.93842114	      6.60886396	      0.11534644	     25.06316778	      3.50643923	      0.00000000	     -1.59126555	      0.86524106	     -6.66993298	      1.56934257	      0.02739019	     27.43032354	      8.52473910	      0.00000000	     -0.11728006	      0.06641647	     -1.02446445	     -0.21780080	      0.08833391	     -1.08849347	     -0.19267941	      0.16148501	     -1.08849347	     -0.13403938	      0.16148501	     -0.89640639	     -0.10890626	      0.13543647	     -0.83237736	     -0.06701383	      0.10287911	     -0.76834834	     -0.83771975	      0.75131640	     -5.69776391	      0.00000000	      0.00000000	     18.21553361	     -0.25917452	      8.30456837	      8.35754298	    -19.66481193	     75.50305992	     21.63365424	     56.56944816	     -5.98773595	     -5.17944629	     -2.78291252	    -16.64878075	     47.75821584	     23.86712401	     86.17955425	    -13.93707389	     -6.42650272
      3.78333333	     -1.09482260	     -2.41325379	     95.59516641	      0.23891308	      0.72833847	      0.68297487	     -0.04776016	     -1.16327463	      0.93379354	      6.64240807	      0.11593189	     24.85842954	      2.79972467	      0.00000000	     -1.13058495	      0.93503219	     -6.50961574	      1.89749852	      0.03311760	     27.50972946	      8.69764081	      0.00000000	     -0.12730096	      0.02532340	     -1.09937236	     -0.23641061	      0.03368013	     -1.16808313	     -0.20914275	      0.06157132	     -1.16808313	     -0.14549227	      0.06157132	     -0.96195081	     -0.11821167	      0.05163948	     -0.89324004	     -0.07273977	      0.03922595	     -0.82452927	     -0.90929802	      0.28646339	     -6.11437923	      0.00000000	      0.00000000	     18.49744708	     -0.28392480	      7.64011429	      8.97829370	    -19.44455332	     77.89632010	     21.43795430	     57.77262293	     -5.39488702	     -3.72395097	     -2.46462362	    -16.81707142	     48.83516196	     22.85302646	     85.77464762	    -12.91102440	     -5.51433272
      3.80000000	     -1.29931150	     -2.62703123	     95.91515878	      0.23923001	      0.72799298	      0.68332734	      0.08210400	     -1.31772646	      1.30190901	      6.60143750	      0.11521682	     24.36386305	      1.64065063	      0.00000000	     -0.70727003	      1.09138375	     -6.51270912	      2.23320673	      0.03897681	     27.56692796	      9.02117163	      0.00000000	     -0.14737852	     -0.03117332	     -1.14539905	     -0.27369665	     -0.04146052	     -1.21698649	     -0.24212817	     -0.07579482	     -1.21698649	     -0.16843891	     -0.07579482	     -1.00222417	     -0.13685570	     -0.06356864	     -0.93063673	     -0.08421209	     -0.04828748	     -0.85904929	     -1.05271005	     -0.35263886	     -6.37036588	      0.00000000	      0.00000000	     19.00943784	      0.24421311	      7.25723276	      9.63967947	    -19.10249964	     81.34043916	     21.05601894	     59.06719257	     -5.12244154	     -3.08722477	     -1.81993362	    -17.05191002	     52.25529054	     21.48272515	     85.80539192	    -12.29257949	     -3.96816931
      3.81666667	     -1.46708650	     -2.81154258	     96.09940389	      0.23973437	      0.72793916	      0.68379415	      0.17301222	     -1.35612446	      2.91383451	      6.50017298	      0.11344942	     23.30243676	     -1.18713452	      0.00000000	     -0.27899702	      1.18359600	     -7.45490145	      2.65383128	      0.04631809	     27.70571451	     10.35289035	      0.00000000	     -0.16469745	     -0.08901111	     -1.15958378	     -0.30585963	     -0.11838478	     -1.23205777	     -0.27058144	     -0.21642162	     -1.23205777	     -0.18823272	     -0.21642162	     -1.01463581	     -0.15293805	     -0.18151146	     -0.94216183	     -0.09410812	     -0.13787821	     -0.86968784	     -1.17641742	     -1.00691151	     -6.44925714	      0.00000000	      0.00000000	     19.49730584	      1.29327323	      6.84081097	     12.16463500	    -17.87981632	    100.26990651	     19.20119971	     43.60587330	     -5.10671915	     -5.77301276	      0.45838976	    -16.96452403	     67.85977474	     17.92654950	     77.98306410	    -13.30358303	     -4.66281553
      3.83333333	     -1.45687309	     -3.22380902	     96.28998465	      0.23959169	      0.72754984	      0.68366891	      0.51507324	     -1.32681883	      3.38007311	      6.47935838	      0.11308614	     22.51453914	     -2.43346493	      0.00000000	      0.35273524	      1.16799587	     -7.88617994	      3.03279508	      0.05293226	     27.80963196	     11.01108190	      0.00000000	     -0.15707006	     -0.10799054	     -1.30781978	     -0.29169481	     -0.14362741	     -1.38955852	     -0.25805040	     -0.26256819	     -1.38955852	     -0.17951537	     -0.26256819	     -1.14434231	     -0.14585526	     -0.22021430	     -1.06260357	     -0.08974983	     -0.16727734	     -0.98086484	     -1.12193572	     -1.22161054	     -7.27370128	      0.00000000	      0.00000000	     20.38821566	      2.50917455	      7.90610663	     13.84315111	    -16.70391062	    113.74700113	     18.07378184	     34.89540239	     -4.57862231	     -7.09149925	      2.39135949	    -11.57536387	    155.56207736	      1.25657688	      6.91027671	     -5.68783669	     -9.65064448
      3.85000000	     -1.66476872	     -3.45708952	     96.56228014	      0.24007612	      0.72683686	      0.68406000	      0.76342226	     -1.49520840	      3.20556094	      6.69762456	      0.11689560	     22.25104410	     -2.92487166	      0.00000000	      0.83559882	      1.32782606	     -7.88710274	      3.46198996	      0.06042312	     27.92221188	     11.19035666	      0.00000000	     -0.17924617	     -0.17104560	     -1.33397229	     -0.33287806	     -0.22749064	     -1.41734556	     -0.29448353	     -0.41588026	     -1.41734556	     -0.20486045	     -0.41588026	     -1.16722575	     -0.16644799	     -0.34879618	     -1.08385248	     -0.10242126	     -0.26494963	     -1.00047922	     -1.28033746	     -1.93490200	     -7.41915367	      0.00000000	      0.00000000	     21.08161800	      3.74870884	      7.78925040	     13.95623095	    -16.30783557	    115.53220203	     18.19138905	     36.07332211	     -4.79852649	     -6.47001644	      2.24698407	    -11.85040097	    160.53126403	      1.13588739	     11.54675802	     -6.13813624	     -7.35380495
      3.86666667	     -1.82386779	     -3.69893267	     96.83211922	      0.24035603	      0.72619286	      0.68453681	      1.06412873	     -1.62894644	      2.91874688	      6.98472387	      0.12190643	     22.05924986	     -3.38687821	      0.00000000	      1.35024038	      1.44612207	     -8.13228528	      3.92388584	      0.06848473	     28.14582955	     11.68067047	      0.00000000	     -0.19877528	     -0.22216911	     -1.36941734	     -0.36914557	     -0.29548492	     -1.45500592	     -0.32656790	     -0.54018198	     -1.45500592	     -0.22718026	     -0.54018198	     -1.19824017	     -0.18458272	     -0.45304725	     -1.11265159	     -0.11358019	     -0.34413995	     -1.02706300	     -1.41983192	     -2.51322142	     -7.61628840	      0.00000000	      0.00000000	     21.57700414	      4.62248360	      7.70200781	     14.06569274	    -15.79641162	    118.07634742	     17.98382273	     37.34474694	     -5.30091756	     -6.35903957	      2.03829445	    -12.03125165	    165.34949678	      1.00953894	     16.32176525	     -7.14418409	     -5.62808185
      3.88333333	     -1.93049204	     -3.94088472	     97.12090561	      0.24035909	      0.72565067	      0.68504892	      1.41742022	     -1.75520536	      2.11551639	      7.37477738	      0.12871415	     22.09808027	     -3.24909264	      0.00000000	      1.87045354	      1.52136254	     -8.54602374	      4.39542476	      0.07671463	     28.44305185	     12.42926490	      0.00000000	     -0.21337240	     -0.25824210	     -1.44409128	     -0.39625388	     -0.34346199	     -1.53434698	     -0.35054951	     -0.62788984	     -1.53434698	     -0.24386331	     -0.62788984	     -1.26357987	     -0.19813761	     -0.52660729	     -1.17332416	     -0.12192099	     -0.40001701	     -1.08306846	     -1.52409770	     -2.92128629	     -8.03160245	      0.00000000	      0.00000000	     21.88987616	      5.13615710	      7.82912982	     14.23062538	    -15.15458196	    121.54640127	     17.45515702	     38.65642664	     -5.92703513	     -6.56391311	      1.68666537	    -12.16601290	    168.38051470	      0.89093954	     20.74488091	     -8.46632177	     -4.44336971
      3.90000000	     -2.12769572	     -4.29450362	     97.47808120	      0.24072086	      0.72555220	      0.68554424	      1.98238700	     -2.06261511	     -0.06587205	      8.00519813	      0.13971706	     22.60225087	     -1.31629655	      0.00000000	      2.55218283	      1.65068801	     -9.35705565	      4.99673289	      0.08720944	     28.70507851	     13.73646809	      0.00000000	     -0.20248565	     -0.31430311	     -1.58369648	     -0.37603610	     -0.41802313	     -1.68267751	     -0.33266367	     -0.76419657	     -1.68267751	     -0.23142085	     -0.76419657	     -1.38573442	     -0.18802817	     -0.64092689	     -1.28675339	     -0.11570030	     -0.48685551	     -1.18777236	     -1.44633474	     -3.55545959	     -8.80804473	      0.00000000	      0.00000000	     21.96658079	      5.72555061	      7.96509724	     14.66068357	    -10.43992073	    162.24149540	     11.24229048	      7.97380652	     -2.88501108	    -11.29411470	      1.08093930	    -12.49338115	    166.60238996	      0.78888808	     27.61497795	    -10.24871247	     -3.99093985
      3.91666667	     -2.09141182	     -4.62655242	     97.70728294	      0.24011976	      0.72512480	      0.68614656	      2.55079775	     -2.12513541	     -0.87378555	      8.54836827	      0.14919717	     22.78525098	     -1.14225003	      0.00000000	      3.17986265	      1.65488807	     -9.32079607	      5.46787177	      0.09543237	     28.99869145	     13.81848359	      0.00000000	     -0.18785885	     -0.31261998	     -1.73231932	     -0.34887267	     -0.41578457	     -1.84058928	     -0.30863331	     -0.76010422	     -1.84058928	     -0.21470388	     -0.76010422	     -1.51577941	     -0.17444573	     -0.63749466	     -1.40750945	     -0.10734255	     -0.48424835	     -1.29923949	     -1.34185699	     -3.53641974	     -9.63464038	      0.00000000	      0.00000000	     22.10145156	      5.67053443	      8.72977147	     14.61993373	    -10.30187483	    162.85639094	     11.09608459	      8.53992867	     -2.67749608	    -10.83229287	      0.52417459	    -12.51425625	    167.97067094	      0.68179592	     29.53649394	    -12.25445901	     -3.54605200
